<svg xmlns="http://www.w3.org/2000/svg" xmlns:xlink="http://www.w3.org/1999/xlink" width="306" height="96" viewBox="0 0 306 96">
  <defs>
    <style>
      .cls-1, .cls-2, .cls-3 {
        fill: #fff;
      }

      .cls-1, .cls-2, .cls-3, .cls-4, .cls-5, .cls-6, .cls-7, .cls-8, .cls-9 {
        fill-rule: evenodd;
      }

      .cls-2, .cls-8 {
        fill-opacity: 0.99;
      }

      .cls-3 {
        filter: url(#filter);
      }

      .cls-4 {
        fill: #f7f8f8;
      }

      .cls-5 {
        fill: #323232;
      }

      .cls-6 {
        fill: #333;
      }

      .cls-7 {
        fill: #e84d37;
      }

      .cls-8 {
        fill: #353535;
      }

      .cls-9 {
        fill: #343434;
      }
    </style>
    <filter id="filter" x="255" y="4" width="32" height="37" filterUnits="userSpaceOnUse">
      <feOffset result="offset" dy="1" in="SourceAlpha"/>
      <feGaussianBlur result="blur" stdDeviation="1.732"/>
      <feFlood result="flood" flood-color="#313235" flood-opacity="0.5"/>
      <feComposite result="composite" operator="in" in2="blur"/>
      <feBlend result="blend" in="SourceGraphic"/>
    </filter>
  </defs>
  <path id="Лупа" class="cls-1" d="M242.155,15.747H241.4l-0.264-.261a6.212,6.212,0,1,0-.675.675l0.263,0.262v0.755l4.773,4.76,1.423-1.422Zm-5.731,0a4.291,4.291,0,1,1,4.3-4.291A4.294,4.294,0,0,1,236.424,15.747Z"/>
  <path id="Вход" class="cls-2" d="M155,69.968v-0.96a3,3,0,0,1,3-3h11.059a3,3,0,0,1,3,3V81.986a3,3,0,0,1-3,3H158a3,3,0,0,1-3-3V81h2v2h13V68H157v1.969h-2Zm-3,8.046h6.029v2.743l7.027-5.3-7.027-5.3V72.9H152v5.114Z"/>
  <path id="Корзина" class="cls-1" d="M726.576-438.54l-1.2,8.912a2.033,2.033,0,0,1-1.882,1.635H712.61a2.027,2.027,0,0,1-1.879-1.635l-1.469-10.287a3.664,3.664,0,0,1-.137-1.054H707a1,1,0,0,1-1-1,1,1,0,0,1,1-1h4a1,1,0,0,1,1,1,0.99,0.99,0,0,1-.9.979h13.965C726.172-440.99,726.84-439.859,726.576-438.54Zm-13.845,8.518-1.313-9h13.206s-0.031.2-.031,0.2l-1.186,8.787c-0.008.011-.009,0.014,0,0.014H712.731Zm0.514,3.009a1.874,1.874,0,0,1,1.875,1.874,1.874,1.874,0,0,1-1.875,1.874,1.874,1.874,0,0,1-1.874-1.874A1.874,1.874,0,0,1,713.245-427.013Zm9,0a1.874,1.874,0,0,1,1.874,1.874,1.874,1.874,0,0,1-1.874,1.874,1.874,1.874,0,0,1-1.875-1.874A1.874,1.874,0,0,1,722.246-427.013Z"/>
  <path id="Корзина-2" data-name="Корзина" class="cls-1" d="M231.576,70.46l-1.2,8.912a2.032,2.032,0,0,1-1.882,1.635H217.61a2.026,2.026,0,0,1-1.879-1.635l-1.469-10.287a3.669,3.669,0,0,1-.137-1.055H212a1,1,0,0,1,0-2h4a1,1,0,0,1,1,1,0.99,0.99,0,0,1-.9.979h13.965C231.172,68.01,231.84,69.141,231.576,70.46Zm-13.845,8.518-1.313-9h13.206s-0.031.2-.031,0.2l-1.186,8.788c-0.008.011-.009,0.013,0,0.013H217.731Zm0.514,3.009a1.874,1.874,0,1,1-1.874,1.874A1.874,1.874,0,0,1,218.245,81.987Zm9,0a1.874,1.874,0,1,1-1.875,1.874A1.874,1.874,0,0,1,227.246,81.987Z"/>
  <path id="Р" class="cls-3" d="M257.644,19.635h3.682V5.135h8.889a32.57,32.57,0,0,1,7.253.5c3.637,0.954,6.409,4.227,6.409,9.318,0,5.818-3.727,8.863-7.091,9.59a30.776,30.776,0,0,1-6.253.454h-3.039v2.727h15.02v5.364h-15.02V37h-6.168V33.089h-3.682V27.725h3.682V25h-3.682V19.635Zm9.85-9.091v9.045h2.358a13.877,13.877,0,0,0,4.662-.5,4.223,4.223,0,0,0,2.727-4.045,4.205,4.205,0,0,0-3.591-4.273,25.036,25.036,0,0,0-4.208-.227h-1.948Z"/>
  <path id="Сердце" class="cls-4" d="M277.606,81.732s7.285-3.6,7.285-8.224c0-5.126-5.5-5.936-7.3-1.705m0.049,9.929s-7.285-3.6-7.285-8.224c0-5.126,5.5-5.936,7.3-1.705"/>
  <path id="Твитер" class="cls-1" d="M17.427,61.165A15.692,15.692,0,1,1,1.735,76.857,15.692,15.692,0,0,1,17.427,61.165Zm9.138,10.811a7.3,7.3,0,0,1-2.092.573,3.655,3.655,0,0,0,1.6-2.015,7.284,7.284,0,0,1-2.313.884,3.646,3.646,0,0,0-6.207,3.322,10.342,10.342,0,0,1-7.507-3.806A3.646,3.646,0,0,0,11.175,75.8a3.626,3.626,0,0,1-1.65-.455c0,0.015,0,.03,0,0.046a3.644,3.644,0,0,0,2.922,3.571,3.652,3.652,0,0,1-1.645.062,3.645,3.645,0,0,0,3.4,2.529,7.353,7.353,0,0,1-5.392,1.508,10.358,10.358,0,0,0,15.946-8.727q0-.237-0.011-0.471A7.408,7.408,0,0,0,26.565,71.976Z"/>
  <path id="Мороженко" class="cls-5" d="M32.454,14.447a8.575,8.575,0,0,0-14.639,6.064V35.19a0.809,0.809,0,0,0,.809.809H34.157a0.809,0.809,0,0,0,.809-0.809V20.511A8.519,8.519,0,0,0,32.454,14.447Zm0.894,19.934H19.433V23.489c0.045,0.047.092,0.1,0.143,0.156a2.618,2.618,0,0,0,4.309,0,1.207,1.207,0,0,1,.946-0.6,1.063,1.063,0,0,1,.309.427,10.672,10.672,0,0,1,.488,1.226,9.728,9.728,0,0,0,.7,1.648,1.752,1.752,0,0,0,3.238,0,9.728,9.728,0,0,0,.7-1.648,10.6,10.6,0,0,1,.488-1.226,1.06,1.06,0,0,1,.309-0.427,1.208,1.208,0,0,1,.946.6,3.173,3.173,0,0,0,1.346,1v9.732Zm-9.006,8.58a2.049,2.049,0,0,0,4.1,0V36.8h-4.1v6.164ZM26.5,4.8A23.7,23.7,0,1,1,2.8,28.5,23.7,23.7,0,0,1,26.5,4.8Zm0,45.4A21.7,21.7,0,1,1,48.2,28.5,21.726,21.726,0,0,1,26.5,50.2Z"/>
  <path id="Листик" class="cls-5" d="M82.437,44.625s-22.24-10.187,0-32.75C104.677,34.437,82.437,44.625,82.437,44.625Zm7.516-17.188L83.416,31.6h0L83.4,35.28l6.894-4.408A13.425,13.425,0,0,0,89.953,27.437Zm-15.39,3.191L81.4,35.112V31.491l-6.453-4.153A13.666,13.666,0,0,0,74.563,30.628ZM81.4,29.112V25.476L77,22.1a22.028,22.028,0,0,0-1.464,3.24Zm0-6.088V15.977A39.947,39.947,0,0,0,78.04,20.4Zm2,0.273,3.629-2.6A39.779,39.779,0,0,0,83.4,15.88V23.3Zm0.021,2.3h0L83.4,29.28l5.981-3.85a21.7,21.7,0,0,0-1.337-3.013Zm6.443,7.9-6.443,4.1h0L83.4,41.764A15.351,15.351,0,0,0,89.859,33.5ZM81.4,41.7V37.491L74.979,33.36C76.085,37.5,79.3,40.286,81.4,41.7ZM82.5,4.8A23.7,23.7,0,1,1,58.8,28.5,23.7,23.7,0,0,1,82.5,4.8Zm0,45.4a21.7,21.7,0,1,1,21.7-21.7A21.726,21.726,0,0,1,82.5,50.2Z"/>
  <path id="Корова" class="cls-5" d="M153.578,28a2.421,2.421,0,0,1-2.127,1.047,9.368,9.368,0,0,1-3.256-.84,17.055,17.055,0,0,1-1.577,8.344,5.2,5.2,0,0,1,.518,3.079c-0.488,3.386-4.283,5.239-8.524,5.239s-8.018-1.853-8.48-5.239a5.164,5.164,0,0,1,.33-2.617,17.329,17.329,0,0,1-1.786-8.725,9.113,9.113,0,0,1-3.065.759A2.421,2.421,0,0,1,123.484,28a2.312,2.312,0,0,1-.162-2.214c0.812-1.912,3.593-2.743,4.75-3.012l0.1-.022c-1.4-2.9-.723-7.6-0.2-9.191l3.057,0.254c0.056,1,.766,2.881,3.436,5.01l1.585,1.092a12.211,12.211,0,0,1,4.686-.02l1.692-1.165c2.67-2.129,3.379-4.007,3.435-5.01l3.058-.254c0.528,1.6,1.207,6.342-.224,9.239l0.294,0.068c1.157,0.269,3.937,1.1,4.75,3.012A2.312,2.312,0,0,1,153.578,28ZM128.509,24.72s-2.859.663-3.362,1.846,3.155-.131,3.835-0.693A2.331,2.331,0,0,1,128.509,24.72Zm3.3,0.069c-1.752,2.755-1.578,7.006.467,11.372l0.367,0.781-0.318.8a3.177,3.177,0,0,0-.208,1.611c0.329,2.411,3.6,3.509,6.5,3.509s6.2-1.1,6.545-3.523a3.2,3.2,0,0,0-.33-1.905l-0.417-.84,0.379-.857c1.878-4.251,1.97-8.371.244-11.019-1.3-1.991-3.575-3.043-6.587-3.043C135.4,21.676,133.1,22.752,131.806,24.788ZM151.9,26.565c-0.5-1.183-3.361-1.846-3.361-1.846a2.34,2.34,0,0,1-.474,1.152C148.745,26.434,152.4,27.748,151.9,26.565Zm-18.57-6.1s-3.595-2.477-3.735-5.015c-0.4,2.175-.584,5.613.705,6.983A22.014,22.014,0,0,1,133.329,20.468Zm10.232-.094s3.595-2.476,3.736-5.015c0.4,2.175.584,5.613-.7,6.983A22.09,22.09,0,0,0,143.561,20.374ZM138.183,4.8a23.7,23.7,0,1,1-23.7,23.7A23.7,23.7,0,0,1,138.183,4.8Zm0,45.4a21.7,21.7,0,1,1,21.7-21.7A21.726,21.726,0,0,1,138.183,50.2Z"/>
  <path id="Градусник" class="cls-5" d="M196.023,43.333a6.814,6.814,0,0,1-6.823-6.774,8.051,8.051,0,0,1,1.822-4.6V17.115a5,5,0,0,1,10,0v14.91a7.65,7.65,0,0,1,1.778,4.533A6.776,6.776,0,0,1,196.023,43.333Zm0-2a4.8,4.8,0,0,1-4.8-4.774,5.248,5.248,0,0,1,1.845-3.779V17.115a3,3,0,0,1,6,0V32.844a5.077,5.077,0,0,1,1.754,3.715A4.8,4.8,0,0,1,196.023,41.333Zm2.706-4.915a2.774,2.774,0,1,1-3.675-2.611V16.975a0.949,0.949,0,0,1,1.9,0V33.837A2.768,2.768,0,0,1,198.729,36.418ZM204,20h4a1,1,0,0,1,0,2h-4A1,1,0,0,1,204,20Zm0-4h4a1,1,0,0,1,0,2h-4A1,1,0,0,1,204,16Zm0,8h4a1,1,0,0,1,0,2h-4A1,1,0,0,1,204,24Zm0,4h4a1,1,0,1,1,0,2h-4A1,1,0,1,1,204,28ZM196.183,4.8a23.7,23.7,0,1,1-23.7,23.7A23.7,23.7,0,0,1,196.183,4.8Zm0,45.4a21.7,21.7,0,1,1,21.7-21.7A21.726,21.726,0,0,1,196.183,50.2Z"/>
  <path id="Инста" class="cls-1" d="M56.865,61.228A15.692,15.692,0,1,1,41.173,76.919,15.692,15.692,0,0,1,56.865,61.228Zm6.271,23.61a1.745,1.745,0,0,0,1.745-1.745V70.782a1.745,1.745,0,0,0-1.745-1.745H50.809a1.745,1.745,0,0,0-1.745,1.745V83.093a1.745,1.745,0,0,0,1.745,1.745H63.136Zm-1.375-9.1a4.921,4.921,0,1,1-9.529,0h-1.38v6.786a0.611,0.611,0,0,0,.611.611H62.529a0.611,0.611,0,0,0,.611-0.611V75.737S62.644,75.739,61.761,75.737ZM57,74.132a2.847,2.847,0,1,1,0,5.677A2.838,2.838,0,0,1,57,74.132Zm3.7-3.316H62.56a0.611,0.611,0,0,1,.611.611v1.864a0.611,0.611,0,0,1-.611.611H60.7a0.611,0.611,0,0,1-.611-0.611V71.427A0.611,0.611,0,0,1,60.7,70.816Z"/>
  <path id="ФБ" class="cls-1" d="M91.865,59.228A15.692,15.692,0,1,1,76.173,74.919,15.691,15.691,0,0,1,91.865,59.228Zm0.774,24.99V74.926h2.742l0.285-3.089H92.638l0-1.856c0-.894.084-1.256,1.367-1.256h1.764V65.3H92.982c-3.294,0-4.082,1.546-4.082,4.342v2.2H87.011v3.089H88.9v9.291h3.739Z"/>
  <path id="ВК" class="cls-1" d="M129.865,60.228a15.692,15.692,0,1,1-15.692,15.692A15.691,15.691,0,0,1,129.865,60.228Zm5.967,18.252a3.117,3.117,0,0,0-.757-2.2,3.7,3.7,0,0,0-2.016-1.082V75.123a2.934,2.934,0,0,0,1.371-1.144,3.2,3.2,0,0,0,.5-1.77,3.114,3.114,0,0,0-.362-1.518,2.635,2.635,0,0,0-1.091-1.05,4.307,4.307,0,0,0-1.446-.477,16.411,16.411,0,0,0-2.269-.115h-4.8v13.6H130.4a8.817,8.817,0,0,0,2.332-.256,4.793,4.793,0,0,0,1.686-.857,3.641,3.641,0,0,0,1.032-1.269,3.941,3.941,0,0,0,.383-1.784h0Zm-4.372-5.585a1.543,1.543,0,0,0-.169-0.677,1.008,1.008,0,0,0-.527-0.5,2.105,2.105,0,0,0-.8-0.162q-0.462-.014-1.374-0.013h-0.237v2.877h0.43c0.583,0,.994-0.006,1.228-0.019a2,2,0,0,0,.727-0.19,1.109,1.109,0,0,0,.563-0.529,1.89,1.89,0,0,0,.157-0.786h0Zm0.856,5.523a1.647,1.647,0,0,0-.255-0.984,1.536,1.536,0,0,0-.767-0.539,2.54,2.54,0,0,0-.853-0.134c-0.362-.01-0.849-0.013-1.456-0.013h-0.63v3.4h0.184q1.332,0,1.842-.019a2.878,2.878,0,0,0,1.041-.245,1.363,1.363,0,0,0,.68-0.589A1.789,1.789,0,0,0,132.316,78.417Z"/>
  <path id="_" data-name="&lt;" class="cls-1" d="M264.611,46.69l-5.447,5.447,5.44,5.44-1.414,1.414-6.857-6.857,1.414-1.414,0,0,5.447-5.447Z"/>
  <path id="Маркер" class="cls-1" d="M296.556,66.987h7.8l-3.843,5.025h-0.124Z"/>
  <path id="Маркер-2" data-name="Маркер" class="cls-6" d="M296.556,82.987h7.8l-3.843,5.025h-0.124Z"/>
  <path id="_2" data-name="&gt;" class="cls-1" d="M277.364,46.683l1.414-1.414,6.858,6.857-1.415,1.414Zm1.408,12.3-1.415-1.414,6.858-6.857,1.414,1.414Z"/>
  <path id="Корзина_заполнена" data-name="Корзина заполнена" class="cls-7" d="M245.5,69.375h15.125l-1.375,10.25L246.625,79.5Z"/>
  <path id="Вход_copy" data-name="Вход copy" class="cls-8" d="M185,70.968v-0.96a3,3,0,0,1,3-3h11.059a3,3,0,0,1,3,3V82.985a3,3,0,0,1-3,3H188a3,3,0,0,1-3-3V82h2v2h13V69H187v1.969h-2Zm-3,8.046h6.029v2.743l7.027-5.3-7.027-5.3V73.9H182v5.114Z"/>
  <path id="Корзина-3" data-name="Корзина" class="cls-9" d="M260.575,70.46l-1.2,8.912a2.033,2.033,0,0,1-1.882,1.635H246.61a2.027,2.027,0,0,1-1.879-1.635l-1.469-10.287a3.667,3.667,0,0,1-.137-1.055H241a1,1,0,1,1,0-2h4a1,1,0,0,1,1,1,0.99,0.99,0,0,1-.9.979h13.965C260.172,68.01,260.84,69.141,260.575,70.46Zm-13.844,8.517-1.313-9h13.206s-0.031.2-.031,0.2l-1.186,8.788c-0.008.011-.009,0.014,0,0.014H246.731Zm0.514,3.009a1.874,1.874,0,1,1-1.874,1.874A1.875,1.875,0,0,1,247.245,81.986Zm9,0a1.874,1.874,0,1,1-1.874,1.874A1.875,1.875,0,0,1,256.245,81.986Z"/>
  <path id="Лупа-2" data-name="Лупа" class="cls-6" d="M242.155,41.747H241.4l-0.264-.261a6.209,6.209,0,1,0-.675.675l0.263,0.262v0.755l4.773,4.76,1.423-1.422Zm-5.731,0a4.291,4.291,0,1,1,4.3-4.291A4.294,4.294,0,0,1,236.424,41.747Z"/>
</svg>
